<?xml version="1.0" standalone="no"?>
<!DOCTYPE svg PUBLIC "-//W3C//DTD SVG 20010904//EN"
 "http://www.w3.org/TR/2001/REC-SVG-20010904/DTD/svg10.dtd">
<svg version="1.0" xmlns="http://www.w3.org/2000/svg"
 width="400.000000pt" height="400.000000pt" viewBox="0 0 400.000000 400.000000"
 preserveAspectRatio="xMidYMid meet">
<metadata>
Created by potrace 1.11, written by Peter Selinger 2001-2013
</metadata>
<g transform="translate(0.000000,400.000000) scale(0.100000,-0.100000)"
fill="#000000" stroke="none">
<path d="M1585 3488 c-8 -25 -28 -214 -32 -318 l-5 -105 -44 -27 c-42 -26 -44
-30 -44 -72 0 -43 -2 -47 -40 -66 -55 -28 -164 -133 -212 -203 -91 -135 -141
-287 -159 -490 -36 -411 89 -869 303 -1104 21 -24 38 -46 37 -50 0 -5 -19 -22
-42 -38 -23 -17 -52 -50 -64 -74 -20 -40 -29 -47 -85 -66 -80 -28 -125 -49
-163 -75 -38 -25 -47 -25 -89 3 -19 13 -66 34 -105 47 -62 20 -85 22 -188 17
-318 -13 -539 -188 -624 -492 -30 -108 -23 -283 13 -332 14 -17 923 -19 935
-1 10 17 7 209 -5 271 -5 26 -6 49 -2 52 13 8 97 -44 116 -73 14 -21 20 -54
24 -142 l5 -115 1423 -3 1422 -2 0 379 0 380 -29 20 c-47 34 -171 89 -241 108
-47 12 -102 17 -195 17 -115 0 -138 -3 -204 -27 -101 -37 -189 -88 -255 -148
-52 -48 -76 -55 -76 -24 0 30 -62 145 -92 171 -54 45 -183 94 -250 94 -20 0
-32 9 -48 38 -12 21 -40 49 -63 64 -40 25 -151 58 -193 58 -35 0 -35 11 3 62
53 72 108 209 124 306 11 69 11 142 1 414 -7 181 -17 351 -22 376 -5 26 -14
74 -20 107 -47 253 -175 460 -330 532 -36 17 -90 36 -120 42 -45 9 -58 17 -72
41 -14 24 -24 30 -53 30 -42 0 -64 22 -81 82 -14 50 -70 212 -86 248 -37 86
-63 117 -73 88z m54 -105 c7 -21 16 -47 21 -58 4 -11 18 -47 30 -80 12 -33 31
-82 42 -109 l20 -49 -25 -25 c-20 -19 -39 -26 -83 -30 -71 -6 -87 9 -79 78 2
25 9 99 15 165 7 66 13 126 15 133 8 24 31 11 44 -25z m-199 -702 c16 -31 12
-66 -11 -95 -16 -21 -29 -26 -63 -26 -48 0 -66 13 -66 50 1 33 18 55 60 73 48
21 68 20 80 -2z m-145 -192 c15 -23 -6 -56 -55 -84 -27 -16 -50 -33 -50 -37 0
-4 -5 -8 -11 -8 -17 0 -3 56 22 92 29 40 80 61 94 37z m638 -10 c26 -7 44 -21
57 -42 25 -40 25 -58 0 -106 -24 -48 -60 -78 -112 -92 -103 -27 -193 73 -168
188 10 43 12 45 57 53 58 11 124 11 166 -1z m-415 -45 c27 -18 52 -65 52 -95
0 -63 -84 -139 -154 -139 -39 0 -100 34 -114 65 -16 34 -15 107 1 128 14 20
117 56 162 56 17 1 41 -6 53 -15z m-265 -358 c30 -12 34 -19 44 -77 23 -124
24 -134 9 -154 -13 -19 -15 -18 -55 8 -22 15 -49 44 -59 65 -26 52 -58 213
-45 226 3 3 21 -8 40 -24 18 -17 48 -36 66 -44z"/>
<path d="M1834 2384 c-8 -29 7 -49 30 -41 21 8 21 53 0 61 -23 9 -23 8 -30
-20z"/>
<path d="M1415 2351 c-8 -26 4 -51 25 -51 10 0 21 7 24 16 10 25 -3 54 -24 54
-10 0 -21 -8 -25 -19z"/>
</g>
</svg>
